<?xml version="1.0" encoding="UTF-8"?>
<svg xmlns="http://www.w3.org/2000/svg" version="1.1" xmlns:xlink="http://www.w3.org/1999/xlink" viewBox="0 0 850.39 850.39">
  <!-- Generator: Adobe Illustrator 29.4.0, SVG Export Plug-In . SVG Version: 2.1.0 Build 152)  -->
  <defs>
    <style>
      .st0 {
        fill: url(#Nepojmenovaný_přechod_1127);
      }

      .st1 {
        fill: url(#Nepojmenovaný_přechod_1113);
      }

      .st2 {
        fill: url(#Nepojmenovaný_přechod_1124);
      }

      .st3 {
        fill: url(#Nepojmenovaný_přechod_1130);
      }

      .st4 {
        fill: url(#Nepojmenovaný_přechod_111);
      }

      .st5 {
        fill: url(#Nepojmenovaný_přechod_114);
      }

      .st6 {
        fill: url(#Nepojmenovaný_přechod_11);
      }

      .st7 {
        fill: url(#Nepojmenovaný_přechod_1131);
      }

      .st8 {
        fill: url(#Nepojmenovaný_přechod_1128);
      }

      .st9 {
        fill: url(#Nepojmenovaný_přechod_1112);
      }

      .st10 {
        fill: url(#Nepojmenovaný_přechod_1119);
      }

      .st11 {
        fill: url(#Nepojmenovaný_přechod_1117);
      }

      .st12 {
        fill: url(#Nepojmenovaný_přechod_115);
      }

      .st13 {
        fill: url(#Nepojmenovaný_přechod_1115);
      }

      .st14 {
        fill: url(#Nepojmenovaný_přechod_1122);
      }

      .st15 {
        fill: url(#Nepojmenovaný_přechod_1132);
      }

      .st16 {
        fill: url(#Nepojmenovaný_přechod_1111);
      }

      .st17 {
        fill: url(#Nepojmenovaný_přechod_1129);
      }

      .st18 {
        fill: url(#Nepojmenovaný_přechod_118);
      }

      .st19 {
        fill: url(#Nepojmenovaný_přechod_119);
      }

      .st20 {
        fill: url(#Nepojmenovaný_přechod_117);
      }

      .st21 {
        fill: url(#Nepojmenovaný_přechod_1118);
      }

      .st22 {
        fill: url(#Nepojmenovaný_přechod_1110);
      }

      .st23 {
        fill: url(#Nepojmenovaný_přechod_112);
      }

      .st24 {
        fill: url(#Nepojmenovaný_přechod_1121);
      }

      .st25 {
        fill: url(#Nepojmenovaný_přechod_1116);
      }

      .st26 {
        fill: url(#Nepojmenovaný_přechod_113);
      }

      .st27 {
        fill: #1d1d1b;
      }

      .st28 {
        fill: #e30613;
        font-family: MyriadPro-Bold, 'Myriad Pro';
        font-size: 158px;
        font-weight: 700;
        letter-spacing: .1em;
      }

      .st29 {
        fill: url(#Nepojmenovaný_přechod_1120);
      }

      .st30 {
        fill: url(#Nepojmenovaný_přechod_116);
      }

      .st31 {
        fill: url(#Nepojmenovaný_přechod_1114);
      }

      .st32 {
        fill: url(#Nepojmenovaný_přechod_1123);
      }

      .st33 {
        fill: url(#Nepojmenovaný_přechod_1125);
      }

      .st34 {
        fill: url(#Nepojmenovaný_přechod_1133);
      }

      .st35 {
        fill: url(#Nepojmenovaný_přechod_1126);
      }
    </style>
    <linearGradient id="Nepojmenovaný_přechod_11" data-name="Nepojmenovaný přechod 11" x1="287.39" y1="394.43" x2="558.5" y2="394.43" gradientUnits="userSpaceOnUse">
      <stop offset="0" stop-color="#d8b367"/>
      <stop offset="1" stop-color="#fef8bd"/>
    </linearGradient>
    <linearGradient id="Nepojmenovaný_přechod_111" data-name="Nepojmenovaný přechod 11" x1="227.09" y1="125.36" x2="692.87" y2="573.36" xlink:href="#Nepojmenovaný_přechod_11"/>
    <linearGradient id="Nepojmenovaný_přechod_112" data-name="Nepojmenovaný přechod 11" x1="218.24" y1="134.57" x2="684.01" y2="582.57" xlink:href="#Nepojmenovaný_přechod_11"/>
    <linearGradient id="Nepojmenovaný_přechod_113" data-name="Nepojmenovaný přechod 11" x1="227.27" y1="125.17" x2="693.05" y2="573.17" xlink:href="#Nepojmenovaný_přechod_11"/>
    <linearGradient id="Nepojmenovaný_přechod_114" data-name="Nepojmenovaný přechod 11" x1="246.07" y1="105.63" x2="711.85" y2="553.63" xlink:href="#Nepojmenovaný_přechod_11"/>
    <linearGradient id="Nepojmenovaný_přechod_115" data-name="Nepojmenovaný přechod 11" x1="118.45" y1="532.85" x2="231.77" y2="532.85" xlink:href="#Nepojmenovaný_přechod_11"/>
    <linearGradient id="Nepojmenovaný_přechod_116" data-name="Nepojmenovaný přechod 11" x1="269.6" y1="533.71" x2="374.37" y2="533.71" xlink:href="#Nepojmenovaný_přechod_11"/>
    <linearGradient id="Nepojmenovaný_přechod_117" data-name="Nepojmenovaný přechod 11" x1="412.57" y1="532.66" x2="525.52" y2="532.66" xlink:href="#Nepojmenovaný_přechod_11"/>
    <linearGradient id="Nepojmenovaný_přechod_118" data-name="Nepojmenovaný přechod 11" x1="567.16" y1="532.66" x2="596.25" y2="532.66" xlink:href="#Nepojmenovaný_přechod_11"/>
    <linearGradient id="Nepojmenovaný_přechod_119" data-name="Nepojmenovaný přechod 11" x1="635.41" y1="532.57" x2="723.44" y2="532.57" xlink:href="#Nepojmenovaný_přechod_11"/>
    <linearGradient id="Nepojmenovaný_přechod_1110" data-name="Nepojmenovaný přechod 11" x1="602.46" y1="485.05" x2="620.54" y2="485.05" xlink:href="#Nepojmenovaný_přechod_11"/>
    <linearGradient id="Nepojmenovaný_přechod_1111" data-name="Nepojmenovaný přechod 11" x1="248.12" y1="652.72" x2="282.65" y2="652.72" xlink:href="#Nepojmenovaný_přechod_11"/>
    <linearGradient id="Nepojmenovaný_přechod_1112" data-name="Nepojmenovaný přechod 11" x1="307.73" y1="653.03" x2="345.78" y2="653.03" xlink:href="#Nepojmenovaný_přechod_11"/>
    <linearGradient id="Nepojmenovaný_přechod_1113" data-name="Nepojmenovaný přechod 11" x1="372.85" y1="652.48" x2="408" y2="652.48" xlink:href="#Nepojmenovaný_přechod_11"/>
    <linearGradient id="Nepojmenovaný_přechod_1114" data-name="Nepojmenovaný přechod 11" x1="429.34" y1="652.65" x2="470.36" y2="652.65" xlink:href="#Nepojmenovaný_přechod_11"/>
    <linearGradient id="Nepojmenovaný_přechod_1115" data-name="Nepojmenovaný přechod 11" x1="496.54" y1="652.65" x2="526.24" y2="652.65" xlink:href="#Nepojmenovaný_přechod_11"/>
    <linearGradient id="Nepojmenovaný_přechod_1116" data-name="Nepojmenovaný přechod 11" x1="551.38" y1="652.48" x2="586.53" y2="652.48" xlink:href="#Nepojmenovaný_přechod_11"/>
    <linearGradient id="Nepojmenovaný_přechod_1117" data-name="Nepojmenovaný přechod 11" y1="-553.13" y2="-553.13" xlink:href="#Nepojmenovaný_přechod_11"/>
    <linearGradient id="Nepojmenovaný_přechod_1118" data-name="Nepojmenovaný přechod 11" x1="227.09" y1="-822.2" x2="692.87" y2="-374.2" xlink:href="#Nepojmenovaný_přechod_11"/>
    <linearGradient id="Nepojmenovaný_přechod_1119" data-name="Nepojmenovaný přechod 11" x1="218.24" y1="-812.99" x2="684.01" y2="-364.99" xlink:href="#Nepojmenovaný_přechod_11"/>
    <linearGradient id="Nepojmenovaný_přechod_1120" data-name="Nepojmenovaný přechod 11" x1="227.27" y1="-822.38" x2="693.05" y2="-374.38" xlink:href="#Nepojmenovaný_přechod_11"/>
    <linearGradient id="Nepojmenovaný_přechod_1121" data-name="Nepojmenovaný přechod 11" x1="246.07" y1="-841.93" x2="711.85" y2="-393.93" xlink:href="#Nepojmenovaný_přechod_11"/>
    <linearGradient id="Nepojmenovaný_přechod_1122" data-name="Nepojmenovaný přechod 11" x1="118.45" y1="-414.7" x2="231.77" y2="-414.7" xlink:href="#Nepojmenovaný_přechod_11"/>
    <linearGradient id="Nepojmenovaný_přechod_1123" data-name="Nepojmenovaný přechod 11" x1="269.6" y1="-413.85" x2="374.37" y2="-413.85" xlink:href="#Nepojmenovaný_přechod_11"/>
    <linearGradient id="Nepojmenovaný_přechod_1124" data-name="Nepojmenovaný přechod 11" x1="412.57" y1="-414.89" x2="525.52" y2="-414.89" xlink:href="#Nepojmenovaný_přechod_11"/>
    <linearGradient id="Nepojmenovaný_přechod_1125" data-name="Nepojmenovaný přechod 11" x1="567.16" y1="-414.89" x2="596.25" y2="-414.89" xlink:href="#Nepojmenovaný_přechod_11"/>
    <linearGradient id="Nepojmenovaný_přechod_1126" data-name="Nepojmenovaný přechod 11" x1="635.41" y1="-414.99" x2="723.44" y2="-414.99" xlink:href="#Nepojmenovaný_přechod_11"/>
    <linearGradient id="Nepojmenovaný_přechod_1127" data-name="Nepojmenovaný přechod 11" x1="602.46" y1="-462.51" x2="620.54" y2="-462.51" xlink:href="#Nepojmenovaný_přechod_11"/>
    <linearGradient id="Nepojmenovaný_přechod_1128" data-name="Nepojmenovaný přechod 11" x1="248.12" y1="-294.83" x2="282.65" y2="-294.83" xlink:href="#Nepojmenovaný_přechod_11"/>
    <linearGradient id="Nepojmenovaný_přechod_1129" data-name="Nepojmenovaný přechod 11" x1="307.73" y1="-294.52" x2="345.78" y2="-294.52" xlink:href="#Nepojmenovaný_přechod_11"/>
    <linearGradient id="Nepojmenovaný_přechod_1130" data-name="Nepojmenovaný přechod 11" x1="372.85" y1="-295.07" x2="408" y2="-295.07" xlink:href="#Nepojmenovaný_přechod_11"/>
    <linearGradient id="Nepojmenovaný_přechod_1131" data-name="Nepojmenovaný přechod 11" x1="429.34" y1="-294.9" x2="470.36" y2="-294.9" xlink:href="#Nepojmenovaný_přechod_11"/>
    <linearGradient id="Nepojmenovaný_přechod_1132" data-name="Nepojmenovaný přechod 11" x1="496.54" y1="-294.9" x2="526.24" y2="-294.9" xlink:href="#Nepojmenovaný_přechod_11"/>
    <linearGradient id="Nepojmenovaný_přechod_1133" data-name="Nepojmenovaný přechod 11" x1="551.38" y1="-295.07" x2="586.53" y2="-295.07" xlink:href="#Nepojmenovaný_přechod_11"/>
  </defs>
  <g id="Vrstva_1">
    <circle class="st27" cx="425.2" cy="-522.36" r="396.85"/>
  </g>
  <g id="Vrstva_2">
    <text class="st28" transform="translate(1673.56 -2538.67)"><tspan x="0" y="0">DUGIS</tspan></text>
    <g>
      <g>
        <path class="st27" d="M565.72,357.19c7.61-7,12.39-17.04,12.39-28.17,0-12.42-5.94-23.46-15.13-30.46,1.01-.74,1.94-1.6,2.74-2.59,2.8-3.45,3.88-7.98,2.96-12.32-14.03-66.17-77.08-114.19-149.92-114.19s-135.89,48.03-149.92,114.19c-.92,4.34.17,8.87,2.96,12.32,1.43,1.77,3.24,3.15,5.26,4.09-8.13,7.03-13.29,17.4-13.29,28.96,0,12.21,5.75,23.09,14.67,30.1-2.08,2.81-3.33,6.28-3.33,10.03,0,35.3,28.72,64.02,64.02,64.02h167.53c35.3,0,64.02-28.72,64.02-64.02,0-4.67-1.9-8.9-4.98-11.97Z"/>
        <g>
          <path class="st6" d="M508.28,420.65h-170.67c-27.74,0-50.22-22.49-50.22-50.22h0c0-1.23.99-2.22,2.22-2.22h266.67c1.23,0,2.22.99,2.22,2.22h0c0,27.74-22.49,50.22-50.22,50.22Z"/>
          <polygon class="st4" points="396.65 310.58 457.49 334.56 504.46 305.54 324.4 305.54 363.07 330.64 396.65 310.58"/>
          <path class="st23" d="M542.06,305.54h-16.03l-67.41,41.65-60.94-24.02-34.86,20.83-59.25-38.46h-3.73c-13.25,0-24,10.75-24,24h0c0,13.25,10.75,24,24,24h242.22c13.25,0,24-10.75,24-24h0c0-13.25-10.75-24-24-24Z"/>
          <polygon class="st26" points="397.68 323.17 458.62 347.19 526.03 305.54 524.96 305.54 458.06 346.87 397.17 322.87 362.94 343.32 304.74 305.54 303.57 305.54 362.82 344 397.68 323.17"/>
          <path class="st5" d="M418.72,181.98c-68.43,0-125.43,44.93-138.05,104.44h276.11c-12.62-59.52-69.63-104.44-138.05-104.44ZM334.54,253.32c-4.36,0-7.89-3.53-7.89-7.89s3.53-7.89,7.89-7.89,7.89,3.53,7.89,7.89-3.53,7.89-7.89,7.89ZM361.09,225.98c-5.03,0-9.11-4.08-9.11-9.11s4.08-9.11,9.11-9.11,9.11,4.08,9.11,9.11-4.08,9.11-9.11,9.11ZM382.42,250.7c-4.81,1.47-9.91-1.24-11.38-6.05-1.47-4.81,1.24-9.91,6.05-11.38,4.81-1.47,9.91,1.24,11.38,6.05,1.47,4.81-1.24,9.91-6.05,11.38ZM408.64,218.03c-4.81,1.47-9.91-1.24-11.38-6.05-1.47-4.81,1.24-9.91,6.05-11.38,4.81-1.47,9.91,1.24,11.38,6.05,1.47,4.81-1.24,9.91-6.05,11.38ZM426.2,254.03c-4.81,1.47-9.91-1.24-11.38-6.05-1.47-4.81,1.24-9.91,6.05-11.38,4.81-1.47,9.91,1.24,11.38,6.05,1.47,4.81-1.24,9.91-6.05,11.38ZM447.53,222.25c-4.81,1.47-9.91-1.24-11.38-6.05-1.47-4.81,1.24-9.91,6.05-11.38,4.81-1.47,9.91,1.24,11.38,6.05,1.47,4.81-1.24,9.91-6.05,11.38ZM480.2,241.81c-4.81,1.47-9.91-1.24-11.38-6.05-1.47-4.81,1.24-9.91,6.05-11.38,4.81-1.47,9.91,1.24,11.38,6.05,1.47,4.81-1.24,9.91-6.05,11.38ZM511.98,258.03c-4.81,1.47-9.91-1.24-11.38-6.05-1.47-4.81,1.24-9.91,6.05-11.38,4.81-1.47,9.91,1.24,11.38,6.05,1.47,4.81-1.24,9.91-6.05,11.38Z"/>
        </g>
      </g>
      <g>
        <path class="st27" d="M611.55,460.62c-3.26-.53-5.81-.69-7.79-.54h-45.1v145.16h46.1v-96.3l13.7.53,7.44-18.79c2.45-5.86,3.15-8.69,3.15-12.57,0-9.97-7.65-15.88-17.5-17.49Z"/>
        <path class="st27" d="M151.34,606.57c-12.61,0-24.05-.66-34-1.97l-7.39-.97v-140.58l7.15-1.15c11.11-1.79,25.5-2.77,40.52-2.77,25.7,0,43.47,4.75,57.6,15.4,16.38,12.17,25.06,31.23,25.06,55.09,0,31.27-13.22,49.02-24.31,58.4-14.84,12.33-36.56,18.55-64.63,18.55ZM158.13,566.94c10.97,0,19.44-2.88,25.16-8.56,6.09-6.05,9.18-15.41,9.18-27.81.08-10.57-2.6-18.63-7.96-24.03-5.37-5.41-13.4-8.16-23.84-8.16-1.75,0-3.29.04-4.62.12v68.44c.55,0,2.08,0,2.09,0Z"/>
        <path class="st12" d="M118.45,470.3c10.65-1.71,24.53-2.66,39.17-2.66,24.34,0,40.12,4.37,52.48,13.69,13.31,9.89,21.68,25.67,21.68,48.3,0,24.53-8.94,41.45-21.3,51.91-13.5,11.22-34.04,16.54-59.13,16.54-15.02,0-25.67-.95-32.89-1.9v-125.87ZM147.54,574.87c2.47.57,6.46.57,10.08.57,26.24.19,43.35-14.26,43.35-44.87.19-26.62-15.4-40.69-40.31-40.69-6.46,0-10.65.57-13.12,1.14v83.85Z"/>
        <path class="st27" d="M320.94,607.33c-19,0-33.82-5.65-44.05-16.8-10.48-11.41-15.79-28.39-15.79-50.46v-80h46.1v82.28c0,24.77,11.06,24.77,14.69,24.77,4.51,0,15.07,0,15.07-24.77v-82.28h45.91v80.38c0,21.58-5.55,38.36-16.51,49.88-10.72,11.28-26.01,17-45.43,17Z"/>
        <path class="st30" d="M298.69,468.58v73.77c0,22.06,8.37,33.27,23.2,33.27s23.58-10.65,23.58-33.27v-73.77h28.9v71.87c0,39.55-19.96,58.37-53.43,58.37s-51.34-17.87-51.34-58.75v-71.49h29.09Z"/>
        <path class="st27" d="M482.74,606.57c-25.31,0-44.27-6.43-57.96-19.65-13.57-12.72-20.92-31.48-20.7-52.83.1-22.9,8.34-42.19,23.82-55.75,14.64-12.82,34.66-19.6,57.89-19.6,18.12,0,32.16,3.68,39.27,7.13l6.29,3.05-10.37,39.53-9.09-3.93c-5.51-2.38-12.96-4.82-26.48-4.82-10.19,0-33.9,3.21-33.9,32.95,0,20.99,11.89,33.52,31.8,33.52,2.3,0,4.22-.1,5.76-.24v-11.47h-19.77v-39.63h64.73v82.09l-5.76,1.96c-10.91,3.71-28.59,7.68-45.52,7.68Z"/>
        <path class="st20" d="M525.52,590.84c-8.94,3.04-25.86,7.23-42.78,7.23-23.39,0-40.31-5.89-52.1-17.3-11.79-11.03-18.25-27.76-18.06-46.58.19-42.59,31.18-66.93,73.2-66.93,16.54,0,29.28,3.23,35.56,6.28l-6.08,23.2c-7.04-3.04-15.78-5.51-29.85-5.51-24.15,0-42.4,13.69-42.4,41.45s16.54,42.02,40.31,42.02c6.65,0,11.98-.76,14.26-1.9v-26.81h-19.77v-22.63h47.73v67.5Z"/>
        <path class="st18" d="M596.25,468.58v128.15h-29.09v-128.15h29.09Z"/>
        <path class="st27" d="M671.73,607.14c-16.86,0-32.45-4.45-40.43-8.86l-5.7-3.15,10.02-40.72,9.57,4.9c3.23,1.65,14.81,7.05,28.26,7.05,3.56,0,11.84-.52,11.84-5.38,0-1.53,0-4.38-15.85-10.06-27.06-9.42-40.81-24.85-40.81-45.84,0-27.73,23.43-47.1,56.99-47.1,13.38,0,25.55,2.43,36.19,7.21l6.65,2.99-11.12,40.23-9.17-4.42c-7.22-3.48-15-5.24-23.12-5.24-6.58,0-10.13,1.99-10.13,3.86,0,.75,0,1.34,2.05,2.78,3.07,2.15,8.49,4.4,16.23,7.34,26.06,9.64,38.76,24.75,38.76,46.17s-15.77,48.24-60.22,48.24Z"/>
        <path class="st19" d="M641.31,566.89c7.79,3.99,19.77,7.99,32.13,7.99,13.31,0,20.35-5.51,20.35-13.88s-6.09-12.55-21.49-18.06c-21.3-7.42-35.18-19.2-35.18-37.84,0-21.87,18.25-38.6,48.48-38.6,14.45,0,25.1,3.04,32.7,6.46l-6.46,23.39c-5.13-2.47-14.26-6.08-26.81-6.08s-18.63,5.7-18.63,12.36c0,8.18,7.22,11.79,23.77,18.06,22.63,8.37,33.27,20.16,33.27,38.22,0,21.49-16.54,39.74-51.72,39.74-14.64,0-29.09-3.8-36.32-7.8l5.89-23.96Z"/>
        <path class="st22" d="M612.67,500.97l5.34-13.49c2.15-5.15,2.53-6.93,2.53-9.37,0-5.34-3.75-8.99-8.99-8.99s-9.08,3.56-9.08,8.99c0,3.84,1.97,6.74,5.06,7.96l-4.12,14.89h9.27Z"/>
      </g>
      <g>
        <path class="st27" d="M259.52,680.66c-6.09,0-10.14-.46-12.01-.74-2.09-.31-3.63-2.1-3.63-4.21v-45.71c0-2.03,1.43-3.77,3.42-4.17,3.09-.62,9.03-1.05,14.44-1.05,6.25,0,11.33.54,15.83,3.17,4.86,2.62,7.76,7.41,7.76,12.82,0,3.7-1.34,7.02-3.77,9.62,3.41,2.93,5.36,7.11,5.36,11.92,0,5.15-2.28,9.83-6.41,13.18-4.43,3.53-11.09,5.16-20.98,5.16ZM262.8,664.35c4.55-.05,4.55-1.85,4.55-2.45,0-1.73-2.34-2.22-4.55-2.3v4.74ZM262.8,643.54c1.49-.1,3.44-.47,3.44-1.45,0-.75-1.08-1.13-3.21-1.13-.08,0-.16,0-.24,0v2.59Z"/>
        <path class="st16" d="M248.12,630c2.76-.55,8.36-.97,13.6-.97,6.42,0,10.36.62,13.74,2.62,3.25,1.73,5.59,4.9,5.59,9.12s-2.42,8.01-7.67,9.94v.14c5.32,1.45,9.25,5.46,9.25,11.46,0,4.21-1.93,7.53-4.83,9.88-3.38,2.69-9.05,4.21-18.3,4.21-5.18,0-9.05-.35-11.39-.69v-45.71ZM258.55,647.82h3.45c5.52,0,8.49-2.28,8.49-5.73s-2.69-5.39-7.46-5.39c-2.28,0-3.59.14-4.49.28v10.84ZM258.55,668.47c1.04.14,2.28.14,4.07.14,4.77,0,8.98-1.8,8.98-6.7s-4.21-6.56-9.46-6.56h-3.59v13.12Z"/>
        <path class="st27" d="M326.37,680.94c-8.55,0-22.9-3.32-22.9-25.59v-25.97c0-2.35,1.9-4.25,4.25-4.25h10.57c2.35,0,4.25,1.9,4.25,4.25v26.79c0,7.83,3.03,7.83,4.17,7.83,1.51,0,4.31,0,4.31-7.83v-26.79c0-2.35,1.9-4.25,4.25-4.25h10.5c2.35,0,4.25,1.9,4.25,4.25v26.1c0,16.17-8.62,25.45-23.66,25.45Z"/>
        <path class="st9" d="M318.29,629.38v26.79c0,8.01,3.04,12.08,8.42,12.08s8.56-3.87,8.56-12.08v-26.79h10.5v26.1c0,14.36-7.25,21.2-19.4,21.2s-18.65-6.49-18.65-21.34v-25.97h10.57Z"/>
        <path class="st27" d="M397.23,680.18c-1.52,0-2.92-.81-3.68-2.12-.69-1.19-1.67-3.54-3.7-11.98,0-.04-.02-.07-.02-.11-.68-3.16-1.16-3.86-2.29-4.04v13.99c0,2.35-1.9,4.25-4.25,4.25h-10.43c-2.35,0-4.25-1.9-4.25-4.25v-45.92c0-2.08,1.51-3.86,3.57-4.2,3.98-.65,9.34-1.02,14.7-1.02,8.24,0,13.69,1.41,17.69,4.58,3.86,3.09,5.89,7.61,5.89,13.07,0,5.1-2.29,9.22-5.39,12.04,1.72,2.33,2.64,5.02,3.24,7.21.4,1.45.8,2.96,1.19,4.44.78,2.95,1.85,6.99,2.31,7.9.66,1.32.59,2.88-.19,4.14-.77,1.25-2.14,2.02-3.62,2.02h-10.77ZM387.53,645.78c2.65-.02,4-.84,4-2.45,0-.97,0-2.18-3.51-2.24-.16,0-.32,0-.48,0v4.68Z"/>
        <path class="st1" d="M372.85,630c3.38-.55,8.42-.97,14.02-.97,6.91,0,11.74,1.04,15.05,3.66,2.76,2.21,4.28,5.46,4.28,9.74,0,5.94-4.21,10.01-8.22,11.46v.21c3.25,1.31,5.04,4.42,6.22,8.7,1.45,5.25,2.9,11.33,3.8,13.12h-10.77c-.76-1.31-1.86-5.11-3.25-10.84-1.24-5.8-3.25-7.39-7.53-7.46h-3.18v18.3h-10.43v-45.92ZM383.28,650.03h4.14c5.25,0,8.36-2.62,8.36-6.7,0-4.28-2.9-6.42-7.73-6.49-2.56,0-4.01.21-4.77.35v12.84Z"/>
        <path class="st27" d="M454.83,680.66c-9.52,0-16.68-2.45-21.88-7.48-5.13-4.8-7.94-11.92-7.86-20.02.08-17.05,12.47-28.52,30.84-28.52,5.75,0,11.28,1.01,14.77,2.7,1.83.89,2.77,2.94,2.26,4.9l-2.21,8.43c-.31,1.2-1.14,2.2-2.25,2.74-.59.29-1.22.43-1.86.43-.57,0-1.15-.12-1.69-.35-1.89-.82-4.46-1.65-9.16-1.65-4.16,0-11.15,1.4-11.15,10.8,0,7,3.79,11.01,10.39,11.01.33,0,.64,0,.93-.02v-1.91h-2.93c-2.35,0-4.25-1.9-4.25-4.25v-8.22c0-2.35,1.9-4.25,4.25-4.25h17.33c2.35,0,4.25,1.9,4.25,4.25v24.51c0,1.82-1.16,3.44-2.88,4.03-4.05,1.38-10.62,2.85-16.91,2.85Z"/>
        <path class="st31" d="M470.36,673.79c-3.25,1.1-9.39,2.62-15.54,2.62-8.49,0-14.64-2.14-18.92-6.28-4.28-4-6.63-10.08-6.56-16.92.07-15.47,11.32-24.31,26.59-24.31,6.01,0,10.63,1.17,12.91,2.28l-2.21,8.43c-2.56-1.1-5.73-2-10.84-2-8.77,0-15.4,4.97-15.4,15.05s6.01,15.26,14.64,15.26c2.42,0,4.35-.28,5.18-.69v-9.74h-7.18v-8.22h17.33v24.51Z"/>
        <path class="st27" d="M496.54,680.18c-2.35,0-4.25-1.9-4.25-4.25v-46.54c0-2.35,1.9-4.25,4.25-4.25h28.73c2.35,0,4.25,1.9,4.25,4.25v8.63c0,2.35-1.9,4.25-4.25,4.25h-13.91v1.16h12.88c2.35,0,4.25,1.9,4.25,4.25v8.56c0,2.35-1.9,4.25-4.25,4.25h-12.88v2.55h14.88c2.35,0,4.25,1.9,4.25,4.25v8.63c0,2.35-1.9,4.25-4.25,4.25h-29.7Z"/>
        <path class="st13" d="M524.23,656.25h-17.13v11.05h19.13v8.63h-29.69v-46.54h28.73v8.63h-18.16v9.67h17.13v8.56Z"/>
        <path class="st27" d="M575.75,680.18c-1.52,0-2.92-.81-3.68-2.12-.69-1.19-1.67-3.54-3.7-11.97,0-.04-.02-.07-.02-.1-.68-3.16-1.16-3.87-2.29-4.04v13.99c0,2.35-1.9,4.25-4.25,4.25h-10.43c-2.35,0-4.25-1.9-4.25-4.25v-45.92c0-2.08,1.51-3.86,3.57-4.2,3.98-.65,9.34-1.02,14.7-1.02,8.24,0,13.69,1.41,17.69,4.58,3.86,3.09,5.89,7.61,5.89,13.07,0,5.1-2.29,9.22-5.39,12.04,1.72,2.33,2.64,5.02,3.24,7.21.4,1.45.8,2.97,1.19,4.44.78,2.95,1.85,6.99,2.31,7.9.66,1.32.59,2.88-.19,4.14-.78,1.25-2.14,2.02-3.62,2.02h-10.77ZM566.05,645.78c2.65-.02,4-.84,4-2.45,0-.97,0-2.18-3.51-2.24-.16,0-.32,0-.48,0v4.68Z"/>
        <path class="st25" d="M551.38,630c3.38-.55,8.42-.97,14.02-.97,6.91,0,11.74,1.04,15.05,3.66,2.76,2.21,4.28,5.46,4.28,9.74,0,5.94-4.21,10.01-8.22,11.46v.21c3.25,1.31,5.04,4.42,6.22,8.7,1.45,5.25,2.9,11.33,3.8,13.12h-10.77c-.76-1.31-1.86-5.11-3.25-10.84-1.24-5.8-3.25-7.39-7.53-7.46h-3.18v18.3h-10.43v-45.92ZM561.8,650.03h4.14c5.25,0,8.36-2.62,8.36-6.7,0-4.28-2.9-6.42-7.73-6.49-2.55,0-4,.21-4.77.35v12.84Z"/>
      </g>
    </g>
    <g>
      <g>
        <path class="st27" d="M565.72-590.36c7.61-7,12.39-17.04,12.39-28.17,0-12.42-5.94-23.46-15.13-30.46,1.01-.74,1.94-1.6,2.74-2.59,2.8-3.45,3.88-7.98,2.96-12.32-14.03-66.17-77.08-114.19-149.92-114.19s-135.89,48.03-149.92,114.19c-.92,4.34.17,8.87,2.96,12.32,1.43,1.77,3.24,3.15,5.26,4.09-8.13,7.03-13.29,17.4-13.29,28.96,0,12.21,5.75,23.09,14.67,30.1-2.08,2.81-3.33,6.28-3.33,10.03,0,35.3,28.72,64.02,64.02,64.02h167.53c35.3,0,64.02-28.72,64.02-64.02,0-4.67-1.9-8.9-4.98-11.97Z"/>
        <g>
          <path class="st11" d="M508.28-526.9h-170.67c-27.74,0-50.22-22.49-50.22-50.22h0c0-1.23.99-2.22,2.22-2.22h266.67c1.23,0,2.22.99,2.22,2.22h0c0,27.74-22.49,50.22-50.22,50.22Z"/>
          <polygon class="st21" points="396.65 -636.98 457.49 -613 504.46 -642.02 324.4 -642.02 363.07 -616.92 396.65 -636.98"/>
          <path class="st10" d="M542.06-642.02h-16.03l-67.41,41.65-60.94-24.02-34.86,20.83-59.25-38.46h-3.73c-13.25,0-24,10.75-24,24h0c0,13.25,10.75,24,24,24h242.22c13.25,0,24-10.75,24-24h0c0-13.25-10.75-24-24-24Z"/>
          <polygon class="st29" points="397.68 -624.39 458.62 -600.37 526.03 -642.02 524.96 -642.02 458.06 -600.68 397.17 -624.68 362.94 -604.24 304.74 -642.02 303.57 -642.02 362.82 -603.56 397.68 -624.39"/>
          <path class="st24" d="M418.72-765.57c-68.43,0-125.43,44.93-138.05,104.44h276.11c-12.62-59.52-69.63-104.44-138.05-104.44ZM334.54-694.24c-4.36,0-7.89-3.53-7.89-7.89s3.53-7.89,7.89-7.89,7.89,3.53,7.89,7.89-3.53,7.89-7.89,7.89ZM361.09-721.57c-5.03,0-9.11-4.08-9.11-9.11s4.08-9.11,9.11-9.11,9.11,4.08,9.11,9.11-4.08,9.11-9.11,9.11ZM382.42-696.86c-4.81,1.47-9.91-1.24-11.38-6.05-1.47-4.81,1.24-9.91,6.05-11.38,4.81-1.47,9.91,1.24,11.38,6.05,1.47,4.81-1.24,9.91-6.05,11.38ZM408.64-729.52c-4.81,1.47-9.91-1.24-11.38-6.05-1.47-4.81,1.24-9.91,6.05-11.38,4.81-1.47,9.91,1.24,11.38,6.05,1.47,4.81-1.24,9.91-6.05,11.38ZM426.2-693.52c-4.81,1.47-9.91-1.24-11.38-6.05-1.47-4.81,1.24-9.91,6.05-11.38,4.81-1.47,9.91,1.24,11.38,6.05,1.47,4.81-1.24,9.91-6.05,11.38ZM447.53-725.3c-4.81,1.47-9.91-1.24-11.38-6.05-1.47-4.81,1.24-9.91,6.05-11.38,4.81-1.47,9.91,1.24,11.38,6.05,1.47,4.81-1.24,9.91-6.05,11.38ZM480.2-705.75c-4.81,1.47-9.91-1.24-11.38-6.05-1.47-4.81,1.24-9.91,6.05-11.38,4.81-1.47,9.91,1.24,11.38,6.05,1.47,4.81-1.24,9.91-6.05,11.38ZM511.98-689.52c-4.81,1.47-9.91-1.24-11.38-6.05-1.47-4.81,1.24-9.91,6.05-11.38,4.81-1.47,9.91,1.24,11.38,6.05,1.47,4.81-1.24,9.91-6.05,11.38Z"/>
        </g>
      </g>
      <g>
        <path class="st27" d="M611.55-486.93c-3.26-.53-5.81-.69-7.79-.54h-45.1v145.16h46.1v-96.3l13.7.53,7.44-18.79c2.45-5.86,3.15-8.69,3.15-12.57,0-9.97-7.65-15.88-17.5-17.49Z"/>
        <path class="st27" d="M151.34-340.98c-12.61,0-24.05-.66-34-1.97l-7.39-.97v-140.58l7.15-1.15c11.11-1.79,25.5-2.77,40.52-2.77,25.7,0,43.47,4.75,57.6,15.4,16.38,12.17,25.06,31.23,25.06,55.09,0,31.27-13.22,49.02-24.31,58.4-14.84,12.33-36.56,18.55-64.63,18.55ZM158.13-380.61c10.97,0,19.44-2.88,25.16-8.56,6.09-6.05,9.18-15.41,9.18-27.81.08-10.57-2.6-18.63-7.96-24.03-5.37-5.41-13.4-8.16-23.84-8.16-1.75,0-3.29.04-4.62.12v68.44c.55,0,2.08,0,2.09,0Z"/>
        <path class="st14" d="M118.45-477.26c10.65-1.71,24.53-2.66,39.17-2.66,24.34,0,40.12,4.37,52.48,13.69,13.31,9.89,21.68,25.67,21.68,48.3,0,24.53-8.94,41.45-21.3,51.91-13.5,11.22-34.04,16.54-59.13,16.54-15.02,0-25.67-.95-32.89-1.9v-125.87ZM147.54-372.68c2.47.57,6.46.57,10.08.57,26.24.19,43.35-14.26,43.35-44.87.19-26.62-15.4-40.69-40.31-40.69-6.46,0-10.65.57-13.12,1.14v83.85Z"/>
        <path class="st27" d="M320.94-340.22c-19,0-33.82-5.65-44.05-16.8-10.48-11.41-15.79-28.39-15.79-50.46v-80h46.1v82.28c0,24.77,11.06,24.77,14.69,24.77,4.51,0,15.07,0,15.07-24.77v-82.28h45.91v80.38c0,21.58-5.55,38.36-16.51,49.88-10.72,11.28-26.01,17-45.43,17Z"/>
        <path class="st32" d="M298.69-478.97v73.77c0,22.06,8.37,33.27,23.2,33.27s23.58-10.65,23.58-33.27v-73.77h28.9v71.87c0,39.55-19.96,58.37-53.43,58.37s-51.34-17.87-51.34-58.75v-71.49h29.09Z"/>
        <path class="st27" d="M482.74-340.98c-25.31,0-44.27-6.43-57.96-19.65-13.57-12.72-20.92-31.48-20.7-52.83.1-22.9,8.34-42.19,23.82-55.75,14.64-12.82,34.66-19.6,57.89-19.6,18.12,0,32.16,3.68,39.27,7.13l6.29,3.05-10.37,39.53-9.09-3.93c-5.51-2.38-12.96-4.82-26.48-4.82-10.19,0-33.9,3.21-33.9,32.95,0,20.99,11.89,33.52,31.8,33.52,2.3,0,4.22-.1,5.76-.24v-11.47h-19.77v-39.63h64.73v82.09l-5.76,1.96c-10.91,3.71-28.59,7.68-45.52,7.68Z"/>
        <path class="st2" d="M525.52-356.71c-8.94,3.04-25.86,7.23-42.78,7.23-23.39,0-40.31-5.89-52.1-17.3-11.79-11.03-18.25-27.76-18.06-46.58.19-42.59,31.18-66.93,73.2-66.93,16.54,0,29.28,3.23,35.56,6.28l-6.08,23.2c-7.04-3.04-15.78-5.51-29.85-5.51-24.15,0-42.4,13.69-42.4,41.45s16.54,42.02,40.31,42.02c6.65,0,11.98-.76,14.26-1.9v-26.81h-19.77v-22.63h47.73v67.5Z"/>
        <path class="st33" d="M596.25-478.97v128.15h-29.09v-128.15h29.09Z"/>
        <path class="st27" d="M671.73-340.41c-16.86,0-32.45-4.45-40.43-8.86l-5.7-3.15,10.02-40.72,9.57,4.9c3.23,1.65,14.81,7.05,28.26,7.05,3.56,0,11.84-.52,11.84-5.38,0-1.53,0-4.38-15.85-10.06-27.06-9.42-40.81-24.85-40.81-45.84,0-27.73,23.43-47.1,56.99-47.1,13.38,0,25.55,2.43,36.19,7.21l6.65,2.99-11.12,40.23-9.17-4.42c-7.22-3.48-15-5.24-23.12-5.24-6.58,0-10.13,1.99-10.13,3.86,0,.75,0,1.34,2.05,2.78,3.07,2.15,8.49,4.4,16.23,7.34,26.06,9.64,38.76,24.75,38.76,46.17s-15.77,48.24-60.22,48.24Z"/>
        <path class="st35" d="M641.31-380.67c7.79,3.99,19.77,7.99,32.13,7.99,13.31,0,20.35-5.51,20.35-13.88s-6.09-12.55-21.49-18.06c-21.3-7.42-35.18-19.2-35.18-37.84,0-21.87,18.25-38.6,48.48-38.6,14.45,0,25.1,3.04,32.7,6.46l-6.46,23.39c-5.13-2.47-14.26-6.08-26.81-6.08s-18.63,5.7-18.63,12.36c0,8.18,7.22,11.79,23.77,18.06,22.63,8.37,33.27,20.16,33.27,38.22,0,21.49-16.54,39.74-51.72,39.74-14.64,0-29.09-3.8-36.32-7.8l5.89-23.96Z"/>
        <path class="st0" d="M612.67-446.59l5.34-13.49c2.15-5.15,2.53-6.93,2.53-9.37,0-5.34-3.75-8.99-8.99-8.99s-9.08,3.56-9.08,8.99c0,3.84,1.97,6.74,5.06,7.96l-4.12,14.89h9.27Z"/>
      </g>
      <g>
        <path class="st27" d="M259.52-266.89c-6.09,0-10.14-.46-12.01-.74-2.09-.31-3.63-2.1-3.63-4.21v-45.71c0-2.03,1.43-3.77,3.42-4.17,3.09-.62,9.03-1.05,14.44-1.05,6.25,0,11.33.54,15.83,3.17,4.86,2.62,7.76,7.41,7.76,12.82,0,3.7-1.34,7.02-3.77,9.62,3.41,2.93,5.36,7.11,5.36,11.92,0,5.15-2.28,9.83-6.41,13.18-4.43,3.53-11.09,5.16-20.98,5.16ZM262.8-283.2c4.55-.05,4.55-1.85,4.55-2.45,0-1.73-2.34-2.22-4.55-2.3v4.74ZM262.8-304.01c1.49-.1,3.44-.47,3.44-1.45,0-.75-1.08-1.13-3.21-1.13-.08,0-.16,0-.24,0v2.59Z"/>
        <path class="st8" d="M248.12-317.55c2.76-.55,8.36-.97,13.6-.97,6.42,0,10.36.62,13.74,2.62,3.25,1.73,5.59,4.9,5.59,9.12s-2.42,8.01-7.67,9.94v.14c5.32,1.45,9.25,5.46,9.25,11.46,0,4.21-1.93,7.53-4.83,9.88-3.38,2.69-9.05,4.21-18.3,4.21-5.18,0-9.05-.35-11.39-.69v-45.71ZM258.55-299.73h3.45c5.52,0,8.49-2.28,8.49-5.73s-2.69-5.39-7.46-5.39c-2.28,0-3.59.14-4.49.28v10.84ZM258.55-279.09c1.04.14,2.28.14,4.07.14,4.77,0,8.98-1.8,8.98-6.7s-4.21-6.56-9.46-6.56h-3.59v13.12Z"/>
        <path class="st27" d="M326.37-266.62c-8.55,0-22.9-3.32-22.9-25.59v-25.97c0-2.35,1.9-4.25,4.25-4.25h10.57c2.35,0,4.25,1.9,4.25,4.25v26.79c0,7.83,3.03,7.83,4.17,7.83,1.51,0,4.31,0,4.31-7.83v-26.79c0-2.35,1.9-4.25,4.25-4.25h10.5c2.35,0,4.25,1.9,4.25,4.25v26.1c0,16.17-8.62,25.45-23.66,25.45Z"/>
        <path class="st17" d="M318.29-318.17v26.79c0,8.01,3.04,12.08,8.42,12.08s8.56-3.87,8.56-12.08v-26.79h10.5v26.1c0,14.36-7.25,21.2-19.4,21.2s-18.65-6.49-18.65-21.34v-25.97h10.57Z"/>
        <path class="st27" d="M397.23-267.38c-1.52,0-2.92-.81-3.68-2.12-.69-1.19-1.67-3.54-3.7-11.98,0-.04-.02-.07-.02-.11-.68-3.16-1.16-3.86-2.29-4.04v13.99c0,2.35-1.9,4.25-4.25,4.25h-10.43c-2.35,0-4.25-1.9-4.25-4.25v-45.92c0-2.08,1.51-3.86,3.57-4.2,3.98-.65,9.34-1.02,14.7-1.02,8.24,0,13.69,1.41,17.69,4.58,3.86,3.09,5.89,7.61,5.89,13.07,0,5.1-2.29,9.22-5.39,12.04,1.72,2.33,2.64,5.02,3.24,7.21.4,1.45.8,2.96,1.19,4.44.78,2.95,1.85,6.99,2.31,7.9.66,1.32.59,2.88-.19,4.14-.77,1.25-2.14,2.02-3.62,2.02h-10.77ZM387.53-301.78c2.65-.02,4-.84,4-2.45,0-.97,0-2.18-3.51-2.24-.16,0-.32,0-.48,0v4.68Z"/>
        <path class="st3" d="M372.85-317.55c3.38-.55,8.42-.97,14.02-.97,6.91,0,11.74,1.04,15.05,3.66,2.76,2.21,4.28,5.46,4.28,9.74,0,5.94-4.21,10.01-8.22,11.46v.21c3.25,1.31,5.04,4.42,6.22,8.7,1.45,5.25,2.9,11.33,3.8,13.12h-10.77c-.76-1.31-1.86-5.11-3.25-10.84-1.24-5.8-3.25-7.39-7.53-7.46h-3.18v18.3h-10.43v-45.92ZM383.28-297.53h4.14c5.25,0,8.36-2.62,8.36-6.7,0-4.28-2.9-6.42-7.73-6.49-2.56,0-4.01.21-4.77.35v12.84Z"/>
        <path class="st27" d="M454.83-266.89c-9.52,0-16.68-2.45-21.88-7.48-5.13-4.8-7.94-11.92-7.86-20.02.08-17.05,12.47-28.52,30.84-28.52,5.75,0,11.28,1.01,14.77,2.7,1.83.89,2.77,2.94,2.26,4.9l-2.21,8.43c-.31,1.2-1.14,2.2-2.25,2.74-.59.29-1.22.43-1.86.43-.57,0-1.15-.12-1.69-.35-1.89-.82-4.46-1.65-9.16-1.65-4.16,0-11.15,1.4-11.15,10.8,0,7,3.79,11.01,10.39,11.01.33,0,.64,0,.93-.02v-1.91h-2.93c-2.35,0-4.25-1.9-4.25-4.25v-8.22c0-2.35,1.9-4.25,4.25-4.25h17.33c2.35,0,4.25,1.9,4.25,4.25v24.51c0,1.82-1.16,3.44-2.88,4.03-4.05,1.38-10.62,2.85-16.91,2.85Z"/>
        <path class="st7" d="M470.36-273.77c-3.25,1.1-9.39,2.62-15.54,2.62-8.49,0-14.64-2.14-18.92-6.28-4.28-4-6.63-10.08-6.56-16.92.07-15.47,11.32-24.31,26.59-24.31,6.01,0,10.63,1.17,12.91,2.28l-2.21,8.43c-2.56-1.1-5.73-2-10.84-2-8.77,0-15.4,4.97-15.4,15.05s6.01,15.26,14.64,15.26c2.42,0,4.35-.28,5.18-.69v-9.74h-7.18v-8.22h17.33v24.51Z"/>
        <path class="st27" d="M496.54-267.38c-2.35,0-4.25-1.9-4.25-4.25v-46.54c0-2.35,1.9-4.25,4.25-4.25h28.73c2.35,0,4.25,1.9,4.25,4.25v8.63c0,2.35-1.9,4.25-4.25,4.25h-13.91v1.16h12.88c2.35,0,4.25,1.9,4.25,4.25v8.56c0,2.35-1.9,4.25-4.25,4.25h-12.88v2.55h14.88c2.35,0,4.25,1.9,4.25,4.25v8.63c0,2.35-1.9,4.25-4.25,4.25h-29.7Z"/>
        <path class="st15" d="M524.23-291.31h-17.13v11.05h19.13v8.63h-29.69v-46.54h28.73v8.63h-18.16v9.67h17.13v8.56Z"/>
        <path class="st27" d="M575.75-267.38c-1.52,0-2.92-.81-3.68-2.12-.69-1.19-1.67-3.54-3.7-11.97,0-.04-.02-.07-.02-.1-.68-3.16-1.16-3.87-2.29-4.04v13.99c0,2.35-1.9,4.25-4.25,4.25h-10.43c-2.35,0-4.25-1.9-4.25-4.25v-45.92c0-2.08,1.51-3.86,3.57-4.2,3.98-.65,9.34-1.02,14.7-1.02,8.24,0,13.69,1.41,17.69,4.58,3.86,3.09,5.89,7.61,5.89,13.07,0,5.1-2.29,9.22-5.39,12.04,1.72,2.33,2.64,5.02,3.24,7.21.4,1.45.8,2.97,1.19,4.44.78,2.95,1.85,6.99,2.31,7.9.66,1.32.59,2.88-.19,4.14-.78,1.25-2.14,2.02-3.62,2.02h-10.77ZM566.05-301.78c2.65-.02,4-.84,4-2.45,0-.97,0-2.18-3.51-2.24-.16,0-.32,0-.48,0v4.68Z"/>
        <path class="st34" d="M551.38-317.55c3.38-.55,8.42-.97,14.02-.97,6.91,0,11.74,1.04,15.05,3.66,2.76,2.21,4.28,5.46,4.28,9.74,0,5.94-4.21,10.01-8.22,11.46v.21c3.25,1.31,5.04,4.42,6.22,8.7,1.45,5.25,2.9,11.33,3.8,13.12h-10.77c-.76-1.31-1.86-5.11-3.25-10.84-1.24-5.8-3.25-7.39-7.53-7.46h-3.18v18.3h-10.43v-45.92ZM561.8-297.53h4.14c5.25,0,8.36-2.62,8.36-6.7,0-4.28-2.9-6.42-7.73-6.49-2.55,0-4,.21-4.77.35v12.84Z"/>
      </g>
    </g>
  </g>
</svg>